<?xml version="1.0" ?><!DOCTYPE svg  PUBLIC '-//W3C//DTD SVG 1.1//EN'  'http://www.w3.org/Graphics/SVG/1.1/DTD/svg11.dtd'><svg enable-background="new 0 0 550 550" id="Layer_1" version="1.1" viewBox="0 0 550 550" xml:space="preserve" xmlns="http://www.w3.org/2000/svg" xmlns:xlink="http://www.w3.org/1999/xlink"><g><g><circle cx="275" cy="275" fill="#6CB4E3" r="256"/><path d="M389.1,304.7c0-21.6-15.2-39.5-35-42.2c-0.5-33.1-25.7-59.8-56.7-59.8c-20.1,0-37.7,11.2-47.8,28.1     c-4.5-2.1-9.5-3.4-14.7-3.4c-19,0-34.4,15.6-34.5,34.8c-21.9,0.4-39.5,19.3-39.5,42.5c0,23.5,18,42.6,40.2,42.6     c0.6,0,1.2-0.1,1.7-0.1v0.1h149.1v-0.2C372.7,345.5,389.1,327.2,389.1,304.7z" fill="#FFFFFF"/></g></g></svg>